<svg xmlns="http://www.w3.org/2000/svg" viewBox="0 0 514.5949 122.876">
  <path d="M86.632 0c-1.116 0-2.0227.9053-2.0227 2.0227v48.616c0 1.1173.9067 2.0226 2.0227 2.0226h2.2733c1.1174 0 2.0227-.9053 2.0227-2.0226v-42.12c0-1.1187.9067-2.0254 2.024-2.0254h1.9227c1.1173 0 2.0226.9067 2.0226 2.0254V120.852c0 1.1173.9054 2.024 2.0227 2.024h2.0987c1.1173 0 2.0213-.9067 2.0213-2.024V2.0227C103.04.9053 102.136 0 101.0187 0zM73.9933 0c-1.1173 0-2.024.9053-2.024 2.0227v41.944c0 1.1173-.904 2.024-2.0213 2.024H20.4547c-1.1174 0-2.0227-.9067-2.0227-2.024V13.608c0-1.116-.9053-2.0227-2.0227-2.0227h-2.2746c-1.1174 0-2.0227.9067-2.0227 2.0227v36.504c0 1.116.9053 2.0213 2.0227 2.0213H76.092c1.1173 0 2.0227-.9053 2.0227-2.0213V2.0227C78.1147.9053 77.2093 0 76.092 0zM2.0227 0C.9053 0 0 .9053 0 2.0227V120.852c0 1.1173.9053 2.024 2.0227 2.024h26.4986c1.1174 0 2.0227-.9067 2.0227-2.024V84.5253c0-1.1173-.9053-2.024-2.0227-2.024H26.072c-1.1173 0-2.0227.9067-2.0227 2.024v29.832c0 1.1174-.9053 2.024-2.0226 2.024H8.3427c-1.1174 0-2.024-.9066-2.024-2.024V8.5187c0-1.1187.9066-2.0254 2.024-2.0254h13.684c1.1173 0 2.0226.9067 2.0226 2.0254v30.008c0 1.1173.9054 2.0213 2.0227 2.0213h2.4493c1.1174 0 2.0227-.904 2.0227-2.0213V2.0227C30.544.9053 29.6387 0 28.5213 0zm115.5.176c-1.1174 0-2.0227.904-2.0227 2.0227v2.2786c0 1.1147.9027 2.02 2.016 2.024l49.416.1694c16.324 0 32.4747 11.0573 41.6013 28.2613 4.3894 8.6013 6.6707 17.5533 6.6707 26.5053 0 18.9587-8.952 36.1614-24.9253 46.6947-7.9 5.44-15.7974 8.0733-23.3467 8.0733h-43.0893c-1.1174 0-2.024-.9066-2.024-2.024V19.76c0-1.1213.9106-2.0267 2.032-2.024l41.6773.168c12.8147 0 25.276 8.4253 32.4747 22.2933 3.5106 6.8467 5.2653 14.0427 5.2653 21.24 0 10.708-4.564 21.7667-12.8133 30.368-7.724 7.724-17.028 12.64-24.752 12.64H147.72c-1.12 0-2.0253-.9106-2.024-2.0293l.1667-65.28c.0013-1.12-.904-2.028-2.024-2.028h-2.096c-1.116 0-2.0214.9027-2.0227 2.0187l-.172 70.4773v1.136c0 1.1173.9053 2.024 2.0227 2.024h24.132c9.656 0 20.8893-5.4413 29.492-14.5693 9.3026-10.0067 14.392-22.2947 14.392-34.7574 0-12.6386-4.9147-25.2773-13.8667-35.108-9.656-9.6533-20.1867-14.9186-30.192-14.9186h-48.0053c-1.1174 0-2.0227.904-2.0227 2.0226V120.676c0 1.1173.9053 2.024 2.0227 2.024h49.4093c12.6387 0 26.3307-6.4947 36.6867-17.5533 11.4106-11.7627 17.7306-27.384 17.7306-43.7094 0-16.3253-5.9693-31.7733-17.2026-43.7093C193.6133 6.6707 180.0987.176 166.932.176zM230.868.7013c-1.3813 0-2.5013 1.12-2.5013 2.5014V120.2c0 1.38 1.12 2.5 2.5013 2.5h49.1067c25.452 0 40.9013-14.0427 40.9013-37.916 0-8.5067-1.984-15.6413-6.088-21.5453-.5467-.7827-.584-1.7934-.1-2.6147 3.4933-5.9133 5.3093-13.1653 5.3093-21.48 0-24.4-14.3933-38.268-39.1453-38.268h-38.048c-1.3813 0-2.5013 1.1213-2.5013 2.5013v47.8374c0 1.38 1.12 2.4986 2.5013 2.4986l44.7-.172c2.7173-.8626 5.5613-3.5426 6.1653-4.68 3.304-6.2026 3.7667-16.088-2.4613-22.0053-2.2813-2.1053-6.1427-3.3347-9.652-3.3347H254.74c-1.38 0-2.5 1.12-2.5 2.5014v13.4306c0 1.38 1.12 2.4987 2.5 2.4987h1.3187c1.3813 0 2.5-1.1187 2.5-2.4987v-7.288c0-1.3813 1.12-2.5013 2.5013-2.5013h20.496c5.0893 0 8.6 3.336 8.6 9.48 0 5.4413-2.808 8.2507-8.6 8.2507h-32.6093c-1.38 0-2.5-1.12-2.5-2.5014V9.696c0-1.38 1.12-2.5 2.5-2.5h31.028c21.768 0 33.8786 11.06 33.8786 31.948 0 6.8093-1.3893 12.7507-4.34 18.1667-.032.06-.0666.12-.104.1786l-1.5786 2.524a1.8805 1.8805 0 01-.284.3574c-.9774.9773-.9774 2.5613 0 3.5373l.46.4613c.036.0334.0693.0707.1013.108l3.288 3.8054c2.1067 2.6333 3.16 8.076 3.16 16.5013 0 20.5387-12.2867 31.5973-34.5813 31.5973h-42.788c-1.3814 0-2.5-1.12-2.5-2.5013V3.2027c0-1.3814-1.12-2.5014-2.5014-2.5014zm24.048 11.5867c-1.38 0-2.5013 1.1187-2.5013 2.5v1.3173c0 1.3814 1.1213 2.5014 2.5013 2.5014h29.272c5.7933 0 12.112 3.6866 15.6227 9.6546 1.58 2.9854 2.4586 6.3187 2.4586 9.8294 0 12.112-7.3746 20.7133-18.6093 20.7133h-40.68c-1.3813 0-2.5 1.12-2.5 2.5013v1.3187c0 1.38 1.1187 2.5 2.5 2.5h40.68c11.7627 0 19.3107 8.0747 19.3107 20.8893 0 7.1974-2.984 12.4627-9.128 16.1494-2.984 1.7546-6.144 2.6333-9.6547 2.6333h-35.2413c-1.38 0-2.5-1.12-2.5-2.5013V79.56c0-1.38 1.12-2.4987 2.5-2.4987h32.6093c6.1427 0 9.1267 2.808 9.1267 8.2494 0 5.6173-2.984 8.4253-9.1267 8.4253H261.06c-1.3813 0-2.5013-1.12-2.5013-2.5v-6.5853c0-1.3814-1.1187-2.5-2.5-2.5H254.74c-1.38 0-2.5 1.1186-2.5 2.5V97.556c0 1.38 1.12 2.4987 2.5 2.4987h26.816c6.844 0 11.4093-2.456 13.8667-7.548 1.052-1.9294 1.58-4.388 1.58-7.196 0-9.128-6.144-14.7454-15.4467-14.7454h-38.752c-1.3813 0-2.5013 1.1214-2.5013 2.5014v35.724c0 1.38 1.12 2.4986 2.5013 2.4986h41.384c6.0987 0 11.8547-2.248 17.264-6.9213.0733-.0653.148-.136.2187-.2067 5.0226-5.0693 7.62-11.176 7.62-18.148 0-8.7213-2.7747-15.5373-8.4947-20.6173a2.4691 2.4691 0 00-.2267-.1827l-1.54-1.1253c-1.3386-.9787-1.38-2.976-.0626-3.9813 6.18-4.704 9.796-12.356 9.796-22.016 0-9.8294-4.388-18.2547-11.76-22.644-3.6867-2.1054-8.076-3.1587-12.8147-3.1587zM129.2787 23.864c-1.1147.0053-2.016.912-2.0147 2.0267l.168 83.2066c.0013 1.1147.908 2.0187 2.0227 2.0187h2.2773c1.1173 0 2.024-.908 2.024-2.024V32.028c0-1.1133.8987-2.016 2.0107-2.0227l29.2346-.164c7.8987 0 18.0814 7.0214 22.9947 16.324 2.4587 4.74 3.6853 9.6547 3.6853 15.0974 0 7.1973-3.3333 15.2706-8.7746 21.416-5.4414 6.1426-12.112 9.828-17.9054 9.828h-10.44c-1.1173 0-2.024.9066-2.024 2.024v2.2733c0 1.1173.9067 2.024 2.024 2.024h10.44c9.6547 0 21.9414-8.2507 28.2614-20.012 3.1586-5.7933 4.74-11.7613 4.74-17.5533 0-12.464-6.4947-25.4534-16.852-32.4747-5.0907-3.336-10.532-5.0907-16.1494-5.0907zm246.212 5.0813c-1.1174 0-2.0227.9067-2.0227 2.024v9.756c0 1.1174.9053 2.0227 2.0227 2.0227h53.168c1.1173 0 2.024-.9053 2.024-2.0227v-.7773c0-1.1187-.9067-2.024-2.024-2.024h-48.344c-1.1174 0-2.0227-.9053-2.0227-2.0227v-.1066c0-1.1187.9053-2.0254 2.0227-2.0254h52.9013c1.116 0 2.0227.9067 2.0227 2.0254v8.6813c0 1.1173-.9067 2.024-2.0227 2.024h-27.98c-1.1173 0-2.0213.9053-2.0213 2.0227v63.4853c0 1.1173.904 2.024 2.0213 2.024h.7787c1.1173 0 2.024-.9067 2.024-2.024V53.3467c0-1.1174.904-2.024 2.0213-2.024h27.9787c1.1173 0 2.0253-.904 2.0253-2.0214v-18.332c0-1.1173-.908-2.024-2.0253-2.024zM471.956 30.42c-7.9053 2.1453-13.8027 6.9693-17.6867 14.6053l-.4026.9387c-1.608 3.8853-2.412 7.772-2.412 11.6573 0 4.1547.804 7.7707 2.412 10.988 4.1533 8.3067 12.1933 14.2027 24.252 17.82l1.6093.536c5.4933 1.7427 8.7093 3.6187 9.9147 5.7614l.1333.2693c.2693.4013.4027.9373.4027 1.608 0 1.2053-.1334 2.008-.536 2.6787-.9387 2.144-3.216 3.2173-6.8334 3.2173-5.7613 0-14.0693-2.9493-20.5013-7.1027l-.3-.18c-.948-.568-2.1773-.2706-2.7613.6707l-9.6587 15.5853c-.5947.96-.2893 2.22.68 2.8l.2507.1507c9.512 6.432 22.1066 10.452 32.2906 10.452 3.3494 0 6.432-.4027 9.2454-1.2067 7.9053-2.2786 13.8013-7.1013 17.6866-14.7386l.5374-.9374c1.608-4.1533 2.4106-8.04 2.4106-11.6586 0-3.0547-1.0533-7.0347-3.0333-12.0654a2.8668 2.8668 0 00-.1093-.2453c-3.6427-7.1773-11.3934-12.632-23.12-16.3627l-1.876-.5373c-3.6174-1.2053-6.164-2.2773-7.5027-3.348-1.148-.94-2.052-1.7173-2.5867-2.3307-.236-.272-.384-.5986-.4466-.9533l-.1427-.776c-.0267-.152-.0413-.3107-.0373-.4653.072-2.6894 1.3813-4.6067 2.944-5.2574.8053-.4013 2.2786-.536 4.4226-.536 5.7627 0 14.068 2.9494 20.5014 7.1014l.308.1866c.944.5667 2.168.2734 2.7546-.6586l5.052-8.0467c.6147-.9787.2854-2.272-.7213-2.84l-.292-.164c-8.1733-5.36-19.296-9.112-27.4693-9.112-3.616 0-5.8947.268-7.1014.9387-5.4933 1.6066-9.6466 5.092-12.3266 10.316-1.2067 2.2786-1.7414 4.9586-1.7414 8.3093 0 2.5453.5347 4.9573 1.608 7.2347 2.8134 6.0293 9.1094 10.4506 18.892 13.3986l1.6867.52c.0373.012.072.024.1067.036l3.5666 1.3214c1.8747.6693 4.02 1.7413 6.5654 3.216 4.2866 2.5453 6.432 6.1613 6.432 10.9866 0 2.68-.6707 5.2254-1.876 7.504-2.8147 4.9574-7.6387 7.504-14.3374 7.504-4.1373 0-10.0306-1.524-17.6853-4.4626-.928-.3587-1.9813 0-2.4827.8586l-1.4053 2.396-.1333.2694c7.6373 3.8853 14.8733 5.7613 21.84 5.7613 7.9053 0 14.6053-3.216 18.224-9.38 1.7413-3.0813 2.68-6.5653 2.68-10.5853 0-7.9054-4.02-12.8627-9.38-15.676-2.8134-1.4747-6.2987-2.948-10.72-4.4227l-1.74-.5347c-8.444-2.548-13.668-6.0306-15.812-10.7213-.8054-1.608-1.2067-3.3493-1.2067-5.3587 0-2.5466.4013-4.5546 1.3413-6.2973 2.1054-3.8213 5.1214-6.3453 9.0427-7.5773.132-.04.2707-.0694.408-.0867l5-.6253c.1-.012.2027-.0187.3053-.0174 6.5147.0307 13.5947 2.0867 21.236 6.064 1.0454.544 1.3827 1.884.748 2.8774-.552.8613-1.66 1.1653-2.584.728-7.9573-3.7667-14.3786-5.6507-19.1506-5.6507-2.544 0-4.02.1333-4.6894.536-2.948.8027-5.0906 2.5453-6.5653 5.36l-.1333.2667c-.672 1.2066-.9374 2.8146-.9374 4.824 0 1.4746.2654 2.5466.668 3.216 1.7427 3.6186 6.2987 6.564 13.5347 8.7106l1.74.536 3.272 1.0467c.052.016.0933.0307.1427.0507.732.2986 2.824 1.2173 6.2813 2.8813a2.48 2.48 0 01.168.0853c5.1813 2.9414 8.9067 6.6774 11.04 11.076 1.34 2.68 2.0093 5.6267 2.0093 8.844 0 3.8854-.6693 7.2347-2.144 10.0494l-.2666.536c-3.056 5.976-7.82 10.1106-14.428 12.1386-.1174.0374-.2467.0627-.3694.0814-4.8346.6533-7.4506 1.0453-7.848 1.0453-6.5493 0-15.3613-2.5333-23.784-6.4a2 2 0 01-.1306-.0667l-1.792-.9586c-1.028-.552-1.3787-1.8547-.7667-2.8467l4.5707-7.404c.5613-.9093 1.7346-1.2253 2.6773-.72l1.9987 1.0707c.0493.0266.1013.052.1533.0746 6.5333 2.9254 12.2667 4.3867 17.0733 4.3867 2.412 0 3.8854-.1333 4.556-.536 3.0814-.804 5.2254-2.5453 6.5654-5.2253l.1346-.2667c.6694-1.2067.9374-2.6813.9374-4.556 0-.9387-.268-2.0107-.804-3.3507l-.268-.5346c-1.7427-3.6187-5.628-6.0307-12.7294-8.3094l-1.34-.4013-.4026-.1333c-10.8534-3.216-17.82-8.3067-21.1707-15.4107-1.3387-2.68-2.008-5.6267-2.008-8.8427 0-3.3493.6693-6.5653 2.008-9.916l.2693-.5346c3.052-5.976 7.8174-10.1094 14.424-12.14.1187-.0374.248-.064.3707-.08 4.8347-.6547 7.4507-1.0467 7.8493-1.0467 8.6707 0 18.6734 3.3973 29.8987 10.076.956.5693 2.192.28 2.7733-.668l.4227-.6907c.5907-.9626.2787-2.2346-.6947-2.8053-12.2546-7.196-22.9306-10.736-32.2666-10.736-4.152 0-7.236.4027-9.3787 1.34m-111.208-1.34c-1.1173 0-2.0227.9067-2.0227 2.024v84.924c0 1.1173-.9053 2.024-2.0226 2.024h-9.4894c-1.1173 0-2.0213-.9067-2.0213-2.024v-80.1c0-1.1173.904-2.024 2.0213-2.024h.3774c1.1173 0 2.0226.9067 2.0226 2.024v75.9467c0 1.1173.9054 2.0226 2.0227 2.0226h.7787c1.1173 0 2.0226-.9053 2.0226-2.0226V31.104c0-1.1173-.9053-2.024-2.0226-2.024h-10.024c-1.1174 0-2.0214.9067-2.0214 2.024v89.748c0 1.1173.904 2.024 2.0214 2.024h19.1346c1.1174 0 2.024-.9067 2.024-2.024V31.104c0-1.1173-.9066-2.024-2.024-2.024zm14.7427 17.42c-1.1174 0-2.0227.9053-2.0227 2.0227v.7786c0 1.1174.9053 2.0214 2.0227 2.0214h16.7226c1.1174 0 2.0254.9066 2.0254 2.024v67.5053c0 1.1173.904 2.024 2.0213 2.024h19c1.1173 0 2.0227-.9067 2.0227-2.024V57.5013c0-1.1186-.9054-2.024-2.0227-2.024h-.7773c-1.1174 0-2.0227.9054-2.0227 2.024v58.3934c0 1.1173-.9053 2.0226-2.0227 2.0226h-9.3546c-1.1174 0-2.0214-.9053-2.0214-2.0226v-67.372c0-1.1174-.908-2.0227-2.0253-2.0227zM13.96 58.4533c-1.1173 0-2.024.9067-2.024 2.024v2.0974c0 1.1173.9067 2.0213 2.024 2.0213h68.6267c1.1173 0 2.0226.9067 2.0226 2.0253v47.736c0 1.1174-.9053 2.024-2.0226 2.024h-2.4494c-1.1173 0-2.0226-.9066-2.0226-2.024v-41.944c0-1.1173-.9054-2.0226-2.0227-2.0226H13.96c-1.1173 0-2.024.9053-2.024 2.0226v37.7307c0 1.1173.9067 2.0227 2.024 2.0227h2.4493c1.1174 0 2.0227-.9054 2.0227-2.0227V78.908c0-1.1173.9053-2.024 2.0227-2.024H69.948c1.1173 0 2.0213.9067 2.0213 2.024v41.944c0 1.1173.9067 2.024 2.024 2.024h14.912c1.1174 0 2.0227-.9067 2.0227-2.024V60.4773c0-1.1173-.9053-2.024-2.0227-2.024z"/>
</svg>
