<svg xmlns="http://www.w3.org/2000/svg" viewBox="0 0 1000 1000">
  <path d="M947.4 989.9H52.6c-23.5 0-42.6-19.1-42.6-42.6V52.7c0-23.5 19.1-42.6 42.6-42.6h894.7c23.5 0 42.6 19.1 42.6 42.6v894.6c.1 23.5-19 42.6-42.5 42.6zm1.9-917c0-11.8-9.5-21.3-21.3-21.3H76c-11.7 0-21.3 9.5-21.3 21.3v852c0 11.8 9.5 21.3 21.3 21.3h852c11.8 0 21.3-9.5 21.3-21.3v-852zM610.4 737.7h173.8v21.7H610.4v-21.7zm0-65.2h173.8v21.7H610.4v-21.7zm0-65.2h173.8V629H610.4v-21.7zm-22.7-22c-32.1-26.9-73.4-43.1-118.5-43.1-98.3 0-178.5 76.9-184.1 173.8h260.1v43.4H241.1V716h.9c4.4-91.8 62.5-169.4 144.1-201.4C351 488.9 328 447.7 328 401c0-78 63.2-141.2 141.2-141.2 78 0 141.2 63.2 141.2 141.2 0 46.8-23 87.9-58 113.6 21.4 8.4 41.2 20 58.9 34.1-9.2 11.1-17 23.5-23.6 36.6zM567 401c0-54-43.8-97.8-97.8-97.8S371.4 347 371.4 401s43.8 97.8 97.8 97.8c54-.1 97.8-43.9 97.8-97.8z"/>
</svg>

