<svg xmlns="http://www.w3.org/2000/svg" viewBox="0 0 1000 1000">
  <path d="M500 6.4c-42.2 0-76.5 34.2-76.5 76.5v382.4c0 42.2 34.2 76.5 76.5 76.5 42.2 0 76.5-34.2 76.5-76.5V82.9c0-42.2-34.3-76.5-76.5-76.5z"/>
  <path d="M500 993.6c-270.2 0-490-219.8-490-490 0-151 68.1-291.3 186.7-384.9 24.9-19.6 61-15.4 80.6 9.5 19.6 24.9 15.4 61-9.5 80.6-90.9 71.7-143 179.2-143 294.8 0 206.9 168.3 375.3 375.3 375.3 206.9 0 375.2-168.4 375.2-375.3 0-115.7-52.2-223.2-143.2-294.9-24.9-19.6-29.1-55.7-9.5-80.6 19.6-24.9 55.7-29.1 80.5-9.5 118.8 93.6 186.9 234 186.9 385 0 270.2-219.8 490-490 490z"/>
</svg>
