<svg xmlns="http://www.w3.org/2000/svg" viewBox="0 0 1000 1000" class="undefined"><metadata class="undefined">   Svg Vector Icons : http:&#x2F;&#x2F;www.onlinewebfonts.com&#x2F;icon </metadata><path d="M500 867c-111 0-223 0-334 0 -23 0-46 0-70 0 -42-1-75-29-84-70 -1-6-2-12-2-18C10 593 10 407 10 221c0-49 39-88 88-88 268 0 536 0 805 0 49 0 88 39 88 88 0 186 0 372 0 559 0 48-37 86-85 88 -8 0-16 0-24 0 -111 0-221 0-332 0C533 867 517 867 500 867zM620 806c3 0 5 0 7 0 33 0 65 0 98 0 59 0 117 0 176 0 14 0 24-7 27-20 1-3 1-7 1-11 0-184 0-368 0-552 0-2 0-4 0-7 -1-12-10-22-22-23 -4 0-8-1-12-1 -263 0-526 0-789 0 -2 0-4 0-7 0 -17 1-28 11-28 29 0 169 0 338 0 506 0 2 0 3 1 7 2-3 2-5 3-7 30-70 81-120 153-147 51-19 104-23 157-15 58 8 110 31 152 72C586 683 614 739 620 806zM558 805c0-3 0-4 0-6 0-4-1-7-2-11 -14-64-51-111-109-141 -54-27-112-32-170-18 -77 18-129 66-153 142 -3 10-5 21-7 32 3 1 3 1 4 1 11 0 21 1 31 1 128 0 256 0 383 0C544 806 551 805 558 805z" class="undefined"/><path d="M194 401c0-80 65-145 145-145 80 0 146 65 145 145C484 481 419 546 339 546 259 546 194 481 194 401zM423 401c0-46-37-84-84-84 -47 0-85 38-85 84 0 46 38 84 84 84C386 485 423 447 423 401z" class="undefined"/><path d="M563 315c0-20 0-40 0-60 101 0 202 0 304 0 0 20 0 40 0 60C765 315 664 315 563 315z" class="undefined"/><path d="M563 438c0-20 0-40 0-60 101 0 202 0 304 0 0 20 0 40 0 60C765 438 664 438 563 438z" class="undefined"/><path d="M563 560c0-20 0-40 0-60 61 0 123 0 184 0 0 20 0 40 0 60C685 560 624 560 563 560z" class="undefined"/></svg>