<svg xmlns="http://www.w3.org/2000/svg" viewBox="0 0 512 512">
  <linearGradient id="a" x1="95.7974" x2="416.2026" y1="533.4791" y2="-21.4791" gradientTransform="matrix(1 0 0 -1 0 512)" gradientUnits="userSpaceOnUse">
    <stop offset="0" stop-color="#ffdc7b"/>
    <stop offset="1" stop-color="#f28582"/>
  </linearGradient>
  <path fill="url(#a)" d="M472 332V80c0-22.1-17.9-40-40-40H80c-22.1 0-40 17.9-40 40v352c0 22.1 17.9 40 40 40h352c22.1 0 40-17.9 40-40 0-11 9-20 20-20s20 9 20 20c0 44.1-35.9 80-80 80H80c-44.1 0-80-35.9-80-80V80C0 35.9 35.9 0 80 0h352c44.1 0 80 35.9 80 80v252c0 11-9 20-20 20s-20-9-20-20zM89 393c0 16.6 13.4 30 30 30s30-13.4 30-30-13.4-30-30-30-30 13.4-30 30zm156 10c0 11 9 20 20 20s20-9 20-20c0-97-79-176-176-176-11 0-20 9-20 20s9 20 20 20c75 0 136 61 136 136zm138 0c0 11 9 20 20 20s20-9 20-20c0-83.9-32.7-162.7-92-222-59.3-59.3-138.2-92-222-92-11 0-20 9-20 20s9 20 20 20c151.1 0 274 122.9 274 274z"/>
</svg>
