<svg xmlns="http://www.w3.org/2000/svg" viewBox="0 0 100 54">
  <g fill="none" fill-rule="nonzero">
    <path fill="#6CD591" d="M0 5.0959C0 1.8102 2.9636-.4415 6.4623.0733l45.639 5.9614c2.0512.3018 3.686 2.512 3.686 4.9189l-.0008 6.2299c-3.8455 2.577-6.366 6.8902-6.366 11.7761 0 4.9328 2.4592 9.2084 6.3667 11.7765v2.7395c0 2.4069-1.6347 4.6171-3.686 4.9189l-40.498 5.5321c-3.4988.5151-6.4624-1.7369-6.4624-5.0226Zm19.6804 5.7259h-6.0193v7.8846H9.8424v4.5557h3.8187v8.7606c-.1765 5.5048 1.9857 7.9697 6.9538 8.016h4.6364V35.483h-2.3807c-2.6958-.1314-3.2793-.9199-3.1899-4.4681v-7.7532h7.3994l6.8541 16.7767h6.4687l9.434-21.3323h-6.3796L37.348 33.3806l-5.571-14.6742H19.6804v-7.8846Z"/>
    <path fill="#FFF" d="M88.6097 18.2771c3.9081 0 6.5134.9636 8.4902 3.1539 1.6174 1.7521 2.4708 4.3367 2.4708 7.2274 0 4.205-1.7068 7.4903-4.8066 9.3739-2.0218 1.2267-3.7736 1.5771-7.7268 1.5771H77.244V10.3925h6.02v7.8846h5.3457ZM83.264 35.0537h4.447c3.549 0 5.7053-2.3653 5.7053-6.2203 0-4.0299-1.8867-6.001-5.7054-6.001H83.264v12.2213ZM68.0135 10.3925h6.02v29.2169H63.656c-4.2224 0-6.2442-.6132-8.4007-2.4968-2.2013-1.971-3.324-4.7742-3.324-8.3228 0-3.6796 1.2128-6.4828 3.7737-8.5417 1.6171-1.3139 3.8187-1.971 6.6486-1.971h5.6603v-7.8846h-.0003Zm0 12.4402H63.656c-3.5037 0-5.6153 2.234-5.6153 5.9571 0 3.8986 2.156 6.2639 5.6153 6.2639h4.3576v-12.221Z"/>
  </g>
</svg>
