<svg width="24" height="24" viewBox="0 0 24 24" fill="none" xmlns="http://www.w3.org/2000/svg">
<path d="M16 2H8.00001C7.20436 2 6.4413 2.31607 5.87869 2.87868C5.31608 3.44129 5.00001 4.20435 5.00001 5V20C4.99931 20.1762 5.04518 20.3495 5.13299 20.5023C5.22079 20.655 5.3474 20.7819 5.50001 20.87C5.65203 20.9578 5.82447 21.004 6.00001 21.004C6.17554 21.004 6.34799 20.9578 6.50001 20.87L12 17.69L17.5 20.87C17.6524 20.9564 17.8248 21.0012 18 21C18.1752 21.0012 18.3476 20.9564 18.5 20.87C18.6526 20.7819 18.7792 20.655 18.867 20.5023C18.9548 20.3495 19.0007 20.1762 19 20V5C19 4.20435 18.6839 3.44129 18.1213 2.87868C17.5587 2.31607 16.7957 2 16 2ZM17 18.27L12.5 15.67C12.348 15.5822 12.1755 15.536 12 15.536C11.8245 15.536 11.652 15.5822 11.5 15.67L7.00001 18.27V5C7.00001 4.73478 7.10536 4.48043 7.2929 4.29289C7.48044 4.10536 7.73479 4 8.00001 4H16C16.2652 4 16.5196 4.10536 16.7071 4.29289C16.8947 4.48043 17 4.73478 17 5V18.27Z" fill="#6563FF"/>
</svg>
