<svg xmlns="http://www.w3.org/2000/svg" viewBox="0 0 1000 1000">
  <path d="M901.9 42.4c-8.4-12.1-19.8-20.9-34-26.6-9.1-3.9-18.6-5.8-28.5-5.8H160.6c-9.9 0-19.4 1.9-28.5 5.8-14.2 5.6-25.6 14.5-34 26.6-8.4 12.1-12.6 25.5-12.6 40.2v834.9c0 14.7 4.2 28.1 12.6 40.2 8.4 12.1 19.8 20.9 34 26.6 9.1 3.9 18.6 5.8 28.5 5.8 20.3 0 38.2-7.1 53.8-21.4L500 694l285.6 274.6c15.1 13.8 33 20.7 53.8 20.7 10.8 0 20.3-1.7 28.5-5.2 14.2-5.6 25.6-14.5 34-26.6 8.4-12.1 12.6-25.5 12.6-40.2V82.6c0-14.7-4.2-28.1-12.6-40.2zm-70.3 855l-274-263-57.6-55-57.6 55-274 263V92.9h663.3v804.5z"/>
</svg>
