<svg xmlns="http://www.w3.org/2000/svg" viewBox="0 0 1000 1000">
  <path d="M745.7 857.3c-4-145.7-93.4-270.1-220.1-325.4 60.2-44.6 99.3-115.8 99.3-196.3 0-135.2-110.1-244.9-245.9-244.9S133.1 200.3 133.1 335.6c0 80.3 39 151.4 99 196C106 586.4 16.6 709.6 11.5 854.4c-.9 3.4-1.5 6.8-1.5 10.5l.4 3.8c0 22.4 18.2 40.6 40.8 40.6 22.5 0 40.8-18.2 40.8-40.6l-.1-.5h.8v-.1c0-157.6 128.2-285.3 286.4-285.3 156.2 0 283 124.6 286.1 279.4-.1.9-.3 1.8-.3 2.7l.4 3.8c0 22.4 18.3 40.6 40.8 40.6 22.5 0 40.8-18.2 40.8-40.6l-.4-3.8c0-2.6-.3-5.2-.8-7.6zM378.4 497.9c-90.3 0-163.5-72.9-163.5-162.9s73.2-162.9 163.5-162.9S541.9 245 541.9 335s-73.2 162.9-163.5 162.9z"/>
  <path d="M989.6 859.5c0-2.2-.3-4.3-.6-6.4-3.4-142.2-88.2-263.8-209.7-321.3 54.8-45 90.3-115.5 90.3-191.7 0-135.2-110.1-244.9-245.9-244.9-14.3 0-22.3 3-29.8 16-5.5 9.6-7.2 22.7-2.5 32.9 4.1 9 12.5 15.8 21.7 19 9.4 3.3 22.4 2.1 32.3 3.6 10.3 1.5 20.4 3.6 30.4 6.6 18.3 5.6 35.2 14.8 49.9 27.2 25.7 21.7 45.1 51.8 53.6 84.4 4.5 17.4 7.3 36.6 7.3 54.6 0 64.5-37.8 120.1-92.4 146.5-15.4 9.5-25.6 26.2-25.6 45.2l.5 5c0 29.7 24.7 53.7 55.2 53.7 4.3 0 8.4-.6 12.3-1.5 94.2 45.5 169.1 156.7 171.8 267.8-.1 1.1-.3 2.1-.3 3.2l.4 3.8c0 22.4 18.2 40.6 40.8 40.6 22.5 0 40.8-18.2 40.8-40.6l-.5-3.7z"/>
</svg>