<svg xmlns="http://www.w3.org/2000/svg" viewBox="0 0 1000 1000">
  <path d="M103.33 145.47c-15.87 2.8-29.17 8.17-42.7 17.27-15.63 10.5-24.97 20.3-35.23 37.1C9.53 226.44 10 217.34 10 499.67c0 160.53.93 258.77 2.33 266.7 7 37.1 35.7 69.76 74.2 84.46l13.3 5.13h798l15.17-5.6c28.23-10.26 48.3-27.07 63.23-52.73 14-24.5 13.77-18.43 13.77-297.5 0-282.8.47-273.7-15.4-300.3-14.23-23.8-34.3-40.13-61.13-50.4l-13.3-5.13-393.16-.23c-216.31-.23-397.84.47-403.68 1.4zm756 66.27c-21.7 20.07-356.77 301-359.33 301-2.57 0-337.63-280.93-359.33-301-2.8-2.8 51.57-3.27 359.33-3.27 307.77 0 362.13.47 359.33 3.27zM280.9 413.81c150.97 127.86 205.8 172.9 211.63 174.06 3.97.7 10.97.7 15.17 0 5.6-1.17 60.43-46.43 211.63-174.3C905.77 255.84 923.5 241.14 924.9 246.27c1.87 6.53 2.57 473.2.7 473.2-.7 0-49.47-42.23-108.5-94.03-59.03-51.57-110.13-95.2-113.4-97.07-8.63-4.43-25.2-2.1-32.67 4.67-13.07 12.37-15.4 25.2-7.47 39.2 3.04 4.9 51.8 49.23 121.33 109.9 63.93 55.77 116.43 102.2 116.43 103.37 0 .93-2.8 2.8-6.06 3.97-8.17 3.27-782.37 3.27-790.77 0-3.5-1.4-5.83-3.26-5.37-4.67.47-1.17 53.2-48.07 117.37-104.3 84.24-73.74 117.84-104.77 121.11-111.07 5.6-11.67 3.5-22.87-6.3-33.6-6.07-6.3-9.8-8.4-18.2-9.33-6.77-.7-12.83 0-16.8 1.87-3.27 1.87-53.9 45.26-112.7 96.6C125.03 676.3 76.03 718.54 74.87 719c-2.1.93-2.57-464.56-.47-472.73.93-2.8 1.63-5.13 2.1-5.13.24 0 92.17 77.7 204.4 172.67z"/>
</svg>
