<svg xmlns="http://www.w3.org/2000/svg" viewBox="0 0 1000 1000">
  <path d="M944.1 545.8H331.6c-25.4 0-45.9-20.5-45.9-45.8 0-25.2 20.6-45.7 45.9-45.7h612.5c25.4 0 45.9 20.4 45.9 45.7 0 25.3-20.6 45.8-45.9 45.8zm0-243.9H331.6c-25.4 0-45.9-20.4-45.9-45.7 0-25.3 20.6-45.8 45.9-45.8h612.5c25.4 0 45.9 20.5 45.9 45.8 0 25.2-20.6 45.7-45.9 45.7zM147.8 789.5H55.9c-25.4 0-45.9-20.4-45.9-45.7 0-25.3 20.6-45.8 45.9-45.8h91.9c25.4 0 45.9 20.5 45.9 45.8 0 25.3-20.5 45.7-45.9 45.7zm0-243.7H55.9C30.6 545.8 10 525.3 10 500c0-25.2 20.6-45.7 45.9-45.7h91.8c25.4 0 45.9 20.4 45.9 45.7.1 25.3-20.4 45.8-45.8 45.8zm0-243.9H55.9c-25.4 0-45.9-20.4-45.9-45.7 0-25.3 20.6-45.8 45.9-45.8h91.9c25.4 0 45.9 20.5 45.9 45.8 0 25.2-20.5 45.7-45.9 45.7zm183.8 487.6c-25.4 0-45.9-20.4-45.9-45.7 0-25.3 20.6-45.8 45.9-45.8h612.5c25.4 0 45.9 20.5 45.9 45.8 0 25.2-20.6 45.7-45.9 45.7H331.6z"/>
</svg>