<svg xmlns="http://www.w3.org/2000/svg" viewBox="0 0 1000 1000">
  <g stroke="#000">
    <path stroke-width="19.097" d="M780.452 460c0-16.84-12.313-30.452-27.546-30.452H257.094c-15.233 0-27.546 13.612-27.546 30.452 0 16.84 12.313 30.452 27.546 30.452h495.812c15.233 0 27.546-13.612 27.546-30.452z"/>
    <path stroke-width="29.959" d="M959.243 712.947c-6.89-71.291-59.72-122.95-125.861-122.95-41.475 0-76.286 25.245-98.39 56-22.088-30.755-56.916-56.018-98.39-56.018-66.107 0-118.938 51.66-125.844 122.933-.727 4.69-2.51 21.305 3.895 47.266 9.433 38.287 31.158 73.052 62.852 100.598L721.784 985.14c3.843 3.26 8.516 4.882 13.208 4.882 4.725 0 9.45-1.674 13.31-4.97l144.21-124.31c31.66-27.477 53.385-62.242 62.836-100.563 6.404-25.943 4.622-42.541 3.895-47.231zm-37.494 38.827c-7.703 31.278-25.619 59.819-51.774 82.502L735.009 950.618 600.095 834.31c-26.208-22.735-44.124-51.275-51.81-82.536-5.227-21.166-3.34-33.074-3.357-33.074l.294-1.848c4.224-45.696 36.992-91.968 91.414-91.968 37.892 0 68.79 31.574 82.569 62.852l15.821 35.933 15.822-35.933c13.778-31.278 44.642-62.835 82.568-62.835 54.458 0 87.208 46.272 91.674 93.573 0 .104 1.921 12.03-3.34 33.3z" paint-order="markers fill stroke"/>
    <path stroke-width="39.999" d="M249 635c-4.977 0-9 8.94-9 20s4.023 20 9 20h162c4.977 0 9-8.94 9-20s-4.023-20-9-20z"/>
    <path stroke-width="19.097" d="M780.452 270c0-16.84-12.313-30.452-27.546-30.452H257.093c-15.232 0-27.545 13.612-27.545 30.452 0 16.84 12.313 30.452 27.545 30.452h495.813c15.233 0 27.546-13.612 27.546-30.452z"/>
    <path stroke-width="40.075" d="M464.447 944.41H236.483c-99.743 0-180.893-81.132-180.893-180.893V236.483c0-99.761 81.15-180.893 180.893-180.893h527.034c99.743 0 180.893 81.132 180.893 180.893v316.846c0 9.83 7.946 17.777 17.776 17.777s17.776-7.947 17.776-17.777V236.483c0-119.35-97.094-216.445-216.445-216.445H236.483c-119.35 0-216.445 97.094-216.445 216.445v527.034c0 119.35 97.094 216.445 216.445 216.445h227.964c9.83 0 17.777-7.946 17.777-17.776s-7.946-17.776-17.777-17.776z"/>
  </g>
</svg>
